<?xml version="1.0" standalone="no"?><!DOCTYPE svg PUBLIC "-//W3C//DTD SVG 1.1//EN" "http://www.w3.org/Graphics/SVG/1.1/DTD/svg11.dtd"><svg t="1589941469353" class="icon" viewBox="0 0 1024 1024" version="1.1" xmlns="http://www.w3.org/2000/svg" p-id="1993" width="24" height="24" xmlns:xlink="http://www.w3.org/1999/xlink"><defs><style type="text/css"></style></defs><path d="M512 1024C230.4 1024 0 793.6 0 512S230.4 0 512 0s512 230.4 512 512-230.4 512-512 512z m-64-364.8L723.2 416c12.8-12.8 12.8-32 0-44.8-12.8-12.8-32-12.8-44.8 0L435.2 588.8l-89.6-96c-12.8-12.8-32-12.8-44.8 0-12.8 12.8-12.8 32 0 44.8l108.8 121.6c6.4 6.4 12.8 12.8 25.6 12.8 0-6.4 6.4-12.8 12.8-12.8z" fill="#fc7946" p-id="1994"></path></svg>