<?xml version="1.0" standalone="no"?><!DOCTYPE svg PUBLIC "-//W3C//DTD SVG 1.1//EN" "http://www.w3.org/Graphics/SVG/1.1/DTD/svg11.dtd"><svg t="1589955925356" class="icon" viewBox="0 0 1024 1024" version="1.1" xmlns="http://www.w3.org/2000/svg" p-id="5407" width="24" height="24" xmlns:xlink="http://www.w3.org/1999/xlink"><defs><style type="text/css"></style></defs><path d="M987.447353 255.98155a36.513429 36.513429 0 1 0 0-73.065497H36.552647a36.513429 36.513429 0 1 0 0 73.065497h950.894706zM365.714451 768.019609a36.590706 36.590706 0 0 0 73.142775 0v-365.713872a36.552068 36.552068 0 1 0-73.142775 0v365.713872z m219.428323 0a36.667984 36.667984 0 0 0 54.905379 31.683611 36.629345 36.629345 0 0 0 18.276034-31.683611v-365.713872a36.590706 36.590706 0 1 0-73.142774 0v365.713872h-0.038639z" p-id="5408" fill="#707070"></path><path d="M804.571097 914.652905a36.320237 36.320237 0 0 1-36.436152 36.204321H255.865055a36.783899 36.783899 0 0 1-36.436152-36.24296V255.98155H146.286128v658.671355a109.926674 109.926674 0 0 0 109.578927 109.347095H768.134945a109.463011 109.463011 0 0 0 109.578927-109.347095V255.98155h-73.142775v658.671355zM292.571677 109.73464c0-20.51707 15.957721-36.513429 36.783899-36.513429h365.288848c20.478431 0 36.822538 16.228191 36.822538 36.513429v73.220051h73.142774V109.73464A109.656204 109.656204 0 0 0 694.644424 0.001159H329.355576a109.347095 109.347095 0 0 0-109.926673 109.733481v73.220051h73.142774V109.73464z" p-id="5409" fill="#707070"></path></svg>