<?xml version="1.0" standalone="no"?><!DOCTYPE svg PUBLIC "-//W3C//DTD SVG 1.1//EN" "http://www.w3.org/Graphics/SVG/1.1/DTD/svg11.dtd"><svg t="1589944788715" class="icon" viewBox="0 0 1024 1024" version="1.1" xmlns="http://www.w3.org/2000/svg" p-id="3894" xmlns:xlink="http://www.w3.org/1999/xlink" width="24" height="24"><defs><style type="text/css"></style></defs><path d="M678.143 534.248h-333.695c-12.786 0-23.164-10.378-23.164-23.163 0-12.733 10.377-23.060 23.164-23.060h333.696c12.734 0 23.060 10.327 23.060 23.060-0.001 12.784-10.326 23.163-23.061 23.163z" fill="#fc7946" p-id="3895"></path><path d="M511.295 959.391c-247.214 0-448.305-201.090-448.305-448.305 0-247.164 201.091-448.28 448.305-448.28 247.164 0 448.255 201.117 448.255 448.28 0 247.215-201.090 448.305-448.255 448.305zM511.295 109.032c-221.747 0-402.081 180.361-402.081 402.055 0 221.696 180.333 402.081 402.081 402.081 221.695 0 402.030-180.383 402.030-402.081 0-221.694-180.335-402.055-402.030-402.055z" fill="#fc7946" p-id="3896"></path></svg>