<?xml version="1.0" standalone="no"?><!DOCTYPE svg PUBLIC "-//W3C//DTD SVG 1.1//EN" "http://www.w3.org/Graphics/SVG/1.1/DTD/svg11.dtd"><svg t="1590027921930" class="icon" viewBox="0 0 1024 1024" version="1.1" xmlns="http://www.w3.org/2000/svg" p-id="11665" width="18" height="18" xmlns:xlink="http://www.w3.org/1999/xlink"><defs><style type="text/css"></style></defs><path d="M519.670703 1017.153058c-232.500285 0-420.934958-183.779653-420.934958-410.43379 0-93.750197 43.243897-209.29477 129.510656-252.577552 0 0 15.46011 155.771763 97.143481 220.995253 9.717316-104.557334-65.821101-448.833355 259.053034-568.289004 0 192.34575-4.170996 325.922001 97.142457 442.016089-9.16166-71.103408 16.801664-183.034686 158.827355-222.477001-1.230014 183.442986 100.199073 245.610884 100.199073 380.333238C940.606685 833.373405 752.172011 1017.153058 519.670703 1017.153058L519.670703 1017.153058 519.670703 1017.153058 519.670703 1017.153058zM519.670703 1017.153058" p-id="11666" fill="#d81e06"></path></svg>