<?xml version="1.0" standalone="no"?><!DOCTYPE svg PUBLIC "-//W3C//DTD SVG 1.1//EN" "http://www.w3.org/Graphics/SVG/1.1/DTD/svg11.dtd"><svg t="1590028936497" class="icon" viewBox="0 0 1024 1024" version="1.1" xmlns="http://www.w3.org/2000/svg" p-id="13489" width="24" height="24" xmlns:xlink="http://www.w3.org/1999/xlink"><defs><style type="text/css"></style></defs><path d="M511.8 64.2c-247.2 0-447.6 200.4-447.6 447.6s200.4 447.6 447.6 447.6S959.3 759 959.3 511.8 759 64.2 511.8 64.2z m223.6 492.3h-179v179c0 24.7-20 44.8-44.8 44.8-24.7 0-44.8-20-44.8-44.8v-179h-179c-24.7 0-44.8-20-44.8-44.8 0-24.7 20-44.8 44.8-44.8h179V288c0-24.7 20-44.8 44.8-44.8 24.7 0 44.8 20 44.8 44.8v179h179c24.7 0 44.8 20 44.8 44.8-0.1 24.7-20.1 44.7-44.8 44.7z" p-id="13490" data-spm-anchor-id="a313x.7781069.0.i14" class="" fill="#fc7946"></path></svg>