<?xml version="1.0" standalone="no"?><!DOCTYPE svg PUBLIC "-//W3C//DTD SVG 1.1//EN" "http://www.w3.org/Graphics/SVG/1.1/DTD/svg11.dtd"><svg t="1590128956397" class="icon" viewBox="0 0 1024 1024" version="1.1" xmlns="http://www.w3.org/2000/svg" p-id="1998" width="24" height="24" xmlns:xlink="http://www.w3.org/1999/xlink"><defs><style type="text/css"></style></defs><path d="M512 431.559111L391.338667 310.840889A56.888889 56.888889 0 1 0 310.840889 391.395556L431.559111 512l-120.718222 120.661333a56.888889 56.888889 0 1 0 80.497778 80.497778L512 592.440889l120.661333 120.718222a56.888889 56.888889 0 0 0 80.497778-80.497778L592.440889 512l120.718222-120.661333a56.888889 56.888889 0 0 0-80.497778-80.497778L512 431.559111zM512 1024A512 512 0 1 1 512 0a512 512 0 0 1 0 1024z" fill="#D8D8D8" p-id="1999"></path></svg>