<?xml version="1.0" standalone="no"?><!DOCTYPE svg PUBLIC "-//W3C//DTD SVG 1.1//EN" "http://www.w3.org/Graphics/SVG/1.1/DTD/svg11.dtd"><svg t="1589883497289" class="icon" viewBox="0 0 1024 1024" version="1.1" xmlns="http://www.w3.org/2000/svg" p-id="2134" xmlns:xlink="http://www.w3.org/1999/xlink" width="24" height="24"><defs><style type="text/css"></style></defs><path d="M0 512c0 282.624 229.376 512 512 512s512-229.376 512-512S794.624 0 512 0 0 229.376 0 512z" fill="#cdcdcd" p-id="2135"></path><path d="M113.664 512A398.122667 398.122667 0 0 0 512 910.336 398.122667 398.122667 0 0 0 910.336 512 398.122667 398.122667 0 0 0 512 113.664 398.122667 398.122667 0 0 0 113.664 512z" fill="#cdcdcd" p-id="2136"></path><path d="M722.432 310.784a29.397333 29.397333 0 0 1 0 40.448l-361.984 361.984a29.397333 29.397333 0 0 1-40.448 0 29.397333 29.397333 0 0 1 0-40.448l361.984-361.984a29.397333 29.397333 0 0 1 40.448 0z" fill="#FFFFFF" p-id="2137"></path><path d="M320.512 310.784a29.397333 29.397333 0 0 1 40.448 0l361.984 361.984a29.397333 29.397333 0 0 1 0 40.448 29.397333 29.397333 0 0 1-40.448 0L320.512 351.232a29.397333 29.397333 0 0 1 0-40.448z" fill="#FFFFFF" p-id="2138"></path></svg>