<?xml version="1.0" standalone="no"?><!DOCTYPE svg PUBLIC "-//W3C//DTD SVG 1.1//EN" "http://www.w3.org/Graphics/SVG/1.1/DTD/svg11.dtd"><svg t="1590220671034" class="icon" viewBox="0 0 1024 1024" version="1.1" xmlns="http://www.w3.org/2000/svg" p-id="3920" width="24" height="24" xmlns:xlink="http://www.w3.org/1999/xlink"><defs><style type="text/css"></style></defs><path d="M456.064 949.248a29.44 29.44 0 0 1-20.928-8.704l-413.44-413.44a74.304 74.304 0 0 1 0-104.96L435.136 8.64a29.696 29.696 0 0 1 41.984 41.984l-413.44 413.44a14.976 14.976 0 0 0 0 21.12l413.44 413.376a29.76 29.76 0 0 1-21.056 50.688z" fill="#8a8a8a" p-id="3921"></path><path d="M989.824 504.256H70.144a29.632 29.632 0 1 1 0-59.264h919.68a29.568 29.568 0 0 1 0 59.264z" fill="#8a8a8a" p-id="3922"></path></svg>