<?xml version="1.0" standalone="no"?><!DOCTYPE svg PUBLIC "-//W3C//DTD SVG 1.1//EN" "http://www.w3.org/Graphics/SVG/1.1/DTD/svg11.dtd"><svg t="1590028028732" class="icon" viewBox="0 0 1024 1024" version="1.1" xmlns="http://www.w3.org/2000/svg" p-id="12574" width="18" height="18" xmlns:xlink="http://www.w3.org/1999/xlink"><defs><style type="text/css"></style></defs><path d="M921.6 580.266667s17.066667-42.666667 17.066667-59.733334c0-59.733333-51.2-102.4-110.933334-102.4H691.2c34.133333-85.333333 42.666667-170.666667 25.6-230.4C708.266667 128 674.133333 85.333333 622.933333 85.333333c-76.8 0-119.466667 42.666667-119.466666 110.933334 0 76.8-25.6 136.533333-59.733334 196.266666-17.066667 8.533333-25.6 25.6-34.133333 42.666667-8.533333 0-25.6 25.6-25.6 25.6-42.666667 59.733333-42.666667 85.333333-42.666667 93.866667v401.066666c0 8.533333 68.266667 68.266667 162.133334 68.266667h281.6c59.733333-8.533333 102.4-51.2 102.4-110.933333 0-25.6-8.533333-42.666667-8.533334-42.666667s59.733333-17.066667 59.733334-85.333333c0-34.133333-25.6-68.266667-25.6-68.266667s25.6-34.133333 25.6-68.266667c0-51.2-17.066667-68.266667-17.066667-68.266666zM85.333333 512h170.666667v512H85.333333z" p-id="12575" fill="#fc7946"></path></svg>