<?xml version="1.0" standalone="no"?><!DOCTYPE svg PUBLIC "-//W3C//DTD SVG 1.1//EN" "http://www.w3.org/Graphics/SVG/1.1/DTD/svg11.dtd"><svg t="1590129738833" class="icon" viewBox="0 0 1024 1024" version="1.1" xmlns="http://www.w3.org/2000/svg" p-id="3644" width="24" height="24" xmlns:xlink="http://www.w3.org/1999/xlink"><defs><style type="text/css"></style></defs><path d="M960 963.776c-8.192 0-16.384-3.136-22.656-9.344l-161.408-161.408c-12.032-12.032-12.544-31.36-1.152-44.032 61.44-68.288 95.296-156.48 95.296-248.384 0-204.736-166.592-371.264-371.264-371.264S127.616 295.808 127.616 500.544s166.528 371.264 371.264 371.264c54.144 0 106.304-11.392 155.072-33.792 16-7.424 35.072-0.32 42.432 15.68 7.424 16.064 0.384 35.072-15.68 42.432-57.216 26.368-118.4 39.68-181.824 39.68-240 0-435.264-195.264-435.264-435.264S258.816 65.28 498.816 65.28s435.264 195.264 435.264 435.264c0 97.536-32.512 191.616-92.16 267.904l140.672 140.672c12.48 12.48 12.48 32.768 0 45.248C976.384 960.64 968.192 963.776 960 963.776z" p-id="3645" fill="#8a8a8a"></path></svg>